<svg xmlns="http://www.w3.org/2000/svg" width="2200" height="1450" viewBox="0 0 2200 1450">
<title>UML трассировка подтверждения и частичного результата</title>
<rect width="100%" height="100%" fill="white"/>
<text x="1100.0" y="47.0" text-anchor="middle" font-family="Arial" font-size="27" font-weight="bold">UML трассировка подтверждения и частичного результата</text>
<rect x="30.0" y="60" width="240" height="80" rx="0" fill="white" stroke="black" stroke-width="1.6"/>
<text x="150.0" y="92.0" text-anchor="middle" font-family="Arial" font-size="24" font-weight="bold">ERP Client</text>
<polyline points="150.0,140 150.0,1360" fill="none" stroke="black" stroke-width="1.6" stroke-dasharray="7 5"/>
<rect x="410.0" y="60" width="240" height="80" rx="0" fill="white" stroke="black" stroke-width="1.6"/>
<text x="530.0" y="92.0" text-anchor="middle" font-family="Arial" font-size="24" font-weight="bold">API</text>
<polyline points="530.0,140 530.0,1360" fill="none" stroke="black" stroke-width="1.6" stroke-dasharray="7 5"/>
<rect x="790.0" y="60" width="240" height="80" rx="0" fill="white" stroke="black" stroke-width="1.6"/>
<text x="910.0" y="92.0" text-anchor="middle" font-family="Arial" font-size="24" font-weight="bold">Authorization</text>
<polyline points="910.0,140 910.0,1360" fill="none" stroke="black" stroke-width="1.6" stroke-dasharray="7 5"/>
<rect x="1170.0" y="60" width="240" height="80" rx="0" fill="white" stroke="black" stroke-width="1.6"/>
<text x="1290.0" y="92.0" text-anchor="middle" font-family="Arial" font-size="24" font-weight="bold">AckHandler</text>
<polyline points="1290.0,140 1290.0,1360" fill="none" stroke="black" stroke-width="1.6" stroke-dasharray="7 5"/>
<rect x="1550.0" y="60" width="240" height="80" rx="0" fill="white" stroke="black" stroke-width="1.6"/>
<text x="1670.0" y="92.0" text-anchor="middle" font-family="Arial" font-size="24" font-weight="bold">ExchangeStore</text>
<polyline points="1670.0,140 1670.0,1360" fill="none" stroke="black" stroke-width="1.6" stroke-dasharray="7 5"/>
<rect x="1930.0" y="60" width="240" height="80" rx="0" fill="white" stroke="black" stroke-width="1.6"/>
<text x="2050.0" y="92.0" text-anchor="middle" font-family="Arial" font-size="24" font-weight="bold">AuditLog</text>
<polyline points="2050.0,140 2050.0,1360" fill="none" stroke="black" stroke-width="1.6" stroke-dasharray="7 5"/>
<text x="340.0" y="189.0" text-anchor="middle" font-family="Arial" font-size="24">1 POST ACK: batchId, eventIds,</text>
<text x="340.0" y="219.0" text-anchor="middle" font-family="Arial" font-size="24">traceId</text>
<polyline points="150.0,227 530.0,227" fill="none" stroke="black" stroke-width="1.6"/>
<polygon points="530.0,227 520.0013767535762,231.58557882672133 520.0013767535762,222.41442117327867" fill="black" stroke="black" stroke-width="1.6"/>
<rect x="525.0" y="227" width="10" height="22" rx="0" fill="#eeeeee" stroke="black" stroke-width="1.6"/>
<text x="720.0" y="283.0" text-anchor="middle" font-family="Arial" font-size="24">2 Проверить events:ack и</text>
<text x="720.0" y="313.0" text-anchor="middle" font-family="Arial" font-size="24">cabinetIds</text>
<polyline points="530.0,321 910.0,321" fill="none" stroke="black" stroke-width="1.6"/>
<polygon points="910.0,321 900.0013767535762,325.5855788267213 900.0013767535762,316.4144211732787" fill="black" stroke="black" stroke-width="1.6"/>
<rect x="905.0" y="321" width="10" height="22" rx="0" fill="#eeeeee" stroke="black" stroke-width="1.6"/>
<text x="910.0" y="377.0" text-anchor="middle" font-family="Arial" font-size="24">3 ApplyAck(payload, clientId)</text>
<polyline points="530.0,385 1290.0,385" fill="none" stroke="black" stroke-width="1.6"/>
<polygon points="1290.0,385 1280.0013767535763,389.5855788267213 1280.0013767535763,380.4144211732787" fill="black" stroke="black" stroke-width="1.6"/>
<rect x="1285.0" y="385" width="10" height="22" rx="0" fill="#eeeeee" stroke="black" stroke-width="1.6"/>
<text x="1480.0" y="441.0" text-anchor="middle" font-family="Arial" font-size="24">4 Проверить принадлежность</text>
<text x="1480.0" y="471.0" text-anchor="middle" font-family="Arial" font-size="24">пакету и хеш</text>
<polyline points="1290.0,479 1670.0,479" fill="none" stroke="black" stroke-width="1.6"/>
<polygon points="1670.0,479 1660.0013767535763,483.5855788267213 1660.0013767535763,474.4144211732787" fill="black" stroke="black" stroke-width="1.6"/>
<rect x="1665.0" y="479" width="10" height="22" rx="0" fill="#eeeeee" stroke="black" stroke-width="1.6"/>
<text x="1480.0" y="535.0" text-anchor="middle" font-family="Arial" font-size="24">5 Разделить accepted / rejected</text>
<polyline points="1670.0,543 1290.0,543" fill="none" stroke="black" stroke-width="1.6" stroke-dasharray="7 5"/>
<polyline points="1299.9986232464237,538.4144211732787 1290.0,543 1299.9986232464237,547.5855788267213" fill="none" stroke="black" stroke-width="1.6"/>
<text x="1480.0" y="599.0" text-anchor="middle" font-family="Arial" font-size="24">6 Транзакционно сохранить</text>
<text x="1480.0" y="629.0" text-anchor="middle" font-family="Arial" font-size="24">ACK и результат</text>
<polyline points="1290.0,637 1670.0,637" fill="none" stroke="black" stroke-width="1.6"/>
<polygon points="1670.0,637 1660.0013767535763,641.5855788267213 1660.0013767535763,632.4144211732787" fill="black" stroke="black" stroke-width="1.6"/>
<rect x="1665.0" y="637" width="10" height="22" rx="0" fill="#eeeeee" stroke="black" stroke-width="1.6"/>
<text x="1480.0" y="693.0" text-anchor="middle" font-family="Arial" font-size="24">7 COMMIT; повтор того же ACK</text>
<text x="1480.0" y="723.0" text-anchor="middle" font-family="Arial" font-size="24">безопасен</text>
<polyline points="1670.0,731 1290.0,731" fill="none" stroke="black" stroke-width="1.6" stroke-dasharray="7 5"/>
<polyline points="1299.9986232464237,726.4144211732787 1290.0,731 1299.9986232464237,735.5855788267213" fill="none" stroke="black" stroke-width="1.6"/>
<text x="910.0" y="787.0" text-anchor="middle" font-family="Arial" font-size="24">8 AckResponse / 409 ack_conflict</text>
<polyline points="1290.0,795 530.0,795" fill="none" stroke="black" stroke-width="1.6" stroke-dasharray="7 5"/>
<polyline points="539.9986232464238,790.4144211732787 530.0,795 539.9986232464238,799.5855788267213" fill="none" stroke="black" stroke-width="1.6"/>
<text x="1290.0" y="851.0" text-anchor="middle" font-family="Arial" font-size="24">9 traceId, batchId, eventIds, результат без секрета</text>
<polyline points="530.0,859 2050.0,859" fill="none" stroke="black" stroke-width="1.6"/>
<polygon points="2050.0,859 2040.0013767535763,863.5855788267213 2040.0013767535763,854.4144211732787" fill="black" stroke="black" stroke-width="1.6"/>
<rect x="2045.0" y="859" width="10" height="22" rx="0" fill="#eeeeee" stroke="black" stroke-width="1.6"/>
<text x="340.0" y="915.0" text-anchor="middle" font-family="Arial" font-size="24">10 Ответ с acceptedIds и</text>
<text x="340.0" y="945.0" text-anchor="middle" font-family="Arial" font-size="24">rejectedIds</text>
<polyline points="530.0,953 150.0,953" fill="none" stroke="black" stroke-width="1.6" stroke-dasharray="7 5"/>
<polyline points="159.99862324642373,948.4144211732787 150.0,953 159.99862324642373,957.5855788267213" fill="none" stroke="black" stroke-width="1.6"/>
<text x="35" y="1432.0" text-anchor="start" font-family="Arial" font-size="24">Сплошная стрелка — вызов; пунктир — возврат; рамка — фрагмент взаимодействия</text>
</svg>