<svg xmlns="http://www.w3.org/2000/svg" width="2200" height="1450" viewBox="0 0 2200 1450">
<title>UML проверка JWT и области доступа ERP</title>
<rect width="100%" height="100%" fill="white"/>
<text x="1100.0" y="47.0" text-anchor="middle" font-family="Arial" font-size="27" font-weight="bold">UML проверка JWT и области доступа ERP</text>
<rect x="30.0" y="60" width="240" height="80" rx="0" fill="white" stroke="black" stroke-width="1.6"/>
<text x="150.0" y="92.0" text-anchor="middle" font-family="Arial" font-size="24" font-weight="bold">ERP Client</text>
<polyline points="150.0,140 150.0,1360" fill="none" stroke="black" stroke-width="1.6" stroke-dasharray="7 5"/>
<rect x="410.0" y="60" width="240" height="80" rx="0" fill="white" stroke="black" stroke-width="1.6"/>
<text x="530.0" y="92.0" text-anchor="middle" font-family="Arial" font-size="24" font-weight="bold">API Middleware</text>
<polyline points="530.0,140 530.0,1360" fill="none" stroke="black" stroke-width="1.6" stroke-dasharray="7 5"/>
<rect x="790.0" y="60" width="240" height="80" rx="0" fill="white" stroke="black" stroke-width="1.6"/>
<text x="910.0" y="92.0" text-anchor="middle" font-family="Arial" font-size="24" font-weight="bold">Key / Revocation</text>
<polyline points="910.0,140 910.0,1360" fill="none" stroke="black" stroke-width="1.6" stroke-dasharray="7 5"/>
<rect x="1170.0" y="60" width="240" height="80" rx="0" fill="white" stroke="black" stroke-width="1.6"/>
<text x="1290.0" y="92.0" text-anchor="middle" font-family="Arial" font-size="24" font-weight="bold">Authorization</text>
<polyline points="1290.0,140 1290.0,1360" fill="none" stroke="black" stroke-width="1.6" stroke-dasharray="7 5"/>
<rect x="1550.0" y="60" width="240" height="80" rx="0" fill="white" stroke="black" stroke-width="1.6"/>
<text x="1670.0" y="92.0" text-anchor="middle" font-family="Arial" font-size="24" font-weight="bold">Handler</text>
<polyline points="1670.0,140 1670.0,1360" fill="none" stroke="black" stroke-width="1.6" stroke-dasharray="7 5"/>
<rect x="1930.0" y="60" width="240" height="80" rx="0" fill="white" stroke="black" stroke-width="1.6"/>
<text x="2050.0" y="92.0" text-anchor="middle" font-family="Arial" font-size="24" font-weight="bold">ExchangeStore</text>
<polyline points="2050.0,140 2050.0,1360" fill="none" stroke="black" stroke-width="1.6" stroke-dasharray="7 5"/>
<text x="340.0" y="189.0" text-anchor="middle" font-family="Arial" font-size="24">1 GET events / stock либо POST</text>
<text x="340.0" y="219.0" text-anchor="middle" font-family="Arial" font-size="24">ACK</text>
<polyline points="150.0,227 530.0,227" fill="none" stroke="black" stroke-width="1.6"/>
<polygon points="530.0,227 520.0013767535762,231.58557882672133 520.0013767535762,222.41442117327867" fill="black" stroke="black" stroke-width="1.6"/>
<rect x="525.0" y="227" width="10" height="22" rx="0" fill="#eeeeee" stroke="black" stroke-width="1.6"/>
<text x="720.0" y="283.0" text-anchor="middle" font-family="Arial" font-size="24">2 Проверить RS256, kid, iss,</text>
<text x="720.0" y="313.0" text-anchor="middle" font-family="Arial" font-size="24">aud, exp, jti</text>
<polyline points="530.0,321 910.0,321" fill="none" stroke="black" stroke-width="1.6"/>
<polygon points="910.0,321 900.0013767535762,325.5855788267213 900.0013767535762,316.4144211732787" fill="black" stroke="black" stroke-width="1.6"/>
<rect x="905.0" y="321" width="10" height="22" rx="0" fill="#eeeeee" stroke="black" stroke-width="1.6"/>
<text x="720.0" y="377.0" text-anchor="middle" font-family="Arial" font-size="24">3 Результат проверки токена</text>
<polyline points="910.0,385 530.0,385" fill="none" stroke="black" stroke-width="1.6" stroke-dasharray="7 5"/>
<polyline points="539.9986232464238,380.4144211732787 530.0,385 539.9986232464238,389.5855788267213" fill="none" stroke="black" stroke-width="1.6"/>
<rect x="25" y="423" width="2150" height="38" rx="0" fill="white" stroke="black" stroke-width="1.6"/>
<text x="38" y="450.0" text-anchor="start" font-family="Arial" font-size="24" font-weight="bold">alt [валидный JWT и допустимый scope]</text>
<text x="910.0" y="503.0" text-anchor="middle" font-family="Arial" font-size="24">4 permission + cabinetId входит в cabinetIds</text>
<polyline points="530.0,511 1290.0,511" fill="none" stroke="black" stroke-width="1.6"/>
<polygon points="1290.0,511 1280.0013767535763,515.5855788267213 1280.0013767535763,506.4144211732787" fill="black" stroke="black" stroke-width="1.6"/>
<rect x="1285.0" y="511" width="10" height="22" rx="0" fill="#eeeeee" stroke="black" stroke-width="1.6"/>
<text x="910.0" y="567.0" text-anchor="middle" font-family="Arial" font-size="24">5 Allow</text>
<polyline points="1290.0,575 530.0,575" fill="none" stroke="black" stroke-width="1.6" stroke-dasharray="7 5"/>
<polyline points="539.9986232464238,570.4144211732787 530.0,575 539.9986232464238,579.5855788267213" fill="none" stroke="black" stroke-width="1.6"/>
<text x="1100.0" y="631.0" text-anchor="middle" font-family="Arial" font-size="24">6 Выполнить разрешённый обработчик</text>
<polyline points="530.0,639 1670.0,639" fill="none" stroke="black" stroke-width="1.6"/>
<polygon points="1670.0,639 1660.0013767535763,643.5855788267213 1660.0013767535763,634.4144211732787" fill="black" stroke="black" stroke-width="1.6"/>
<rect x="1665.0" y="639" width="10" height="22" rx="0" fill="#eeeeee" stroke="black" stroke-width="1.6"/>
<text x="1860.0" y="695.0" text-anchor="middle" font-family="Arial" font-size="24">7 Read batch / read snapshot /</text>
<text x="1860.0" y="725.0" text-anchor="middle" font-family="Arial" font-size="24">apply ACK</text>
<polyline points="1670.0,733 2050.0,733" fill="none" stroke="black" stroke-width="1.6"/>
<polygon points="2050.0,733 2040.0013767535763,737.5855788267213 2040.0013767535763,728.4144211732787" fill="black" stroke="black" stroke-width="1.6"/>
<rect x="2045.0" y="733" width="10" height="22" rx="0" fill="#eeeeee" stroke="black" stroke-width="1.6"/>
<text x="1860.0" y="789.0" text-anchor="middle" font-family="Arial" font-size="24">8 Результат или ошибка своей</text>
<text x="1860.0" y="819.0" text-anchor="middle" font-family="Arial" font-size="24">зависимости</text>
<polyline points="2050.0,827 1670.0,827" fill="none" stroke="black" stroke-width="1.6" stroke-dasharray="7 5"/>
<polyline points="1679.9986232464237,822.4144211732787 1670.0,827 1679.9986232464237,831.5855788267213" fill="none" stroke="black" stroke-width="1.6"/>
<text x="1100.0" y="883.0" text-anchor="middle" font-family="Arial" font-size="24">9 DTO + traceId</text>
<polyline points="1670.0,891 530.0,891" fill="none" stroke="black" stroke-width="1.6" stroke-dasharray="7 5"/>
<polyline points="539.9986232464238,886.4144211732787 530.0,891 539.9986232464238,895.5855788267213" fill="none" stroke="black" stroke-width="1.6"/>
<text x="340.0" y="947.0" text-anchor="middle" font-family="Arial" font-size="24">10 200 / 409 / 503</text>
<polyline points="530.0,955 150.0,955" fill="none" stroke="black" stroke-width="1.6" stroke-dasharray="7 5"/>
<polyline points="159.99862324642373,950.4144211732787 150.0,955 159.99862324642373,959.5855788267213" fill="none" stroke="black" stroke-width="1.6"/>
<polyline points="25,997 2175,997" fill="none" stroke="black" stroke-width="1.6" stroke-dasharray="7 5"/>
<text x="40" y="1026.0" text-anchor="start" font-family="Arial" font-size="24">[JWT отсутствует или неверен]</text>
<text x="340.0" y="1065.0" text-anchor="middle" font-family="Arial" font-size="24">401 Unauthorized; обработчик</text>
<text x="340.0" y="1095.0" text-anchor="middle" font-family="Arial" font-size="24">не вызывается</text>
<polyline points="530.0,1103 150.0,1103" fill="none" stroke="black" stroke-width="1.6" stroke-dasharray="7 5"/>
<polyline points="159.99862324642373,1098.4144211732787 150.0,1103 159.99862324642373,1107.5855788267213" fill="none" stroke="black" stroke-width="1.6"/>
<polyline points="25,1145 2175,1145" fill="none" stroke="black" stroke-width="1.6" stroke-dasharray="7 5"/>
<text x="40" y="1174.0" text-anchor="start" font-family="Arial" font-size="24">[JWT корректен, но permission или cabinetId не разрешены]</text>
<text x="340.0" y="1213.0" text-anchor="middle" font-family="Arial" font-size="24">403 Forbidden; обработчик не</text>
<text x="340.0" y="1243.0" text-anchor="middle" font-family="Arial" font-size="24">вызывается</text>
<polyline points="530.0,1251 150.0,1251" fill="none" stroke="black" stroke-width="1.6" stroke-dasharray="7 5"/>
<polyline points="159.99862324642373,1246.4144211732787 150.0,1251 159.99862324642373,1255.5855788267213" fill="none" stroke="black" stroke-width="1.6"/>
<polyline points="25,423 25,1293 2175,1293 2175,423" fill="none" stroke="black" stroke-width="1.6"/>
<text x="35" y="1432.0" text-anchor="start" font-family="Arial" font-size="24">Сплошная стрелка — вызов; пунктир — возврат; рамка — фрагмент взаимодействия</text>
</svg>